<mxfile host="Electron" modified="2023-12-11T14:03:40.520Z" agent="Mozilla/5.0 (Windows NT 10.0; Win64; x64) AppleWebKit/537.36 (KHTML, like Gecko) draw.io/22.1.2 Chrome/114.0.5735.289 Electron/25.9.4 Safari/537.36" etag="vBJkylBB_hrG2PV5zkk2" version="22.1.2" type="device">
  <diagram id="C5RBs43oDa-KdzZeNtuy" name="Page-1">
    <mxGraphModel dx="1658" dy="868" grid="0" gridSize="10" guides="1" tooltips="1" connect="1" arrows="1" fold="1" page="1" pageScale="1" pageWidth="827" pageHeight="1169" background="#FAFAFA" math="0" shadow="0">
      <root>
        <mxCell id="WIyWlLk6GJQsqaUBKTNV-0" />
        <mxCell id="WIyWlLk6GJQsqaUBKTNV-1" parent="WIyWlLk6GJQsqaUBKTNV-0" />
        <mxCell id="zkfFHV4jXpPFQw0GAbJ--17" value="AdaptablityGUI" style="swimlane;fontStyle=0;align=center;verticalAlign=top;childLayout=stackLayout;horizontal=1;startSize=26;horizontalStack=0;resizeParent=1;resizeLast=0;collapsible=1;marginBottom=0;rounded=0;shadow=0;strokeWidth=1;labelBackgroundColor=none;" parent="WIyWlLk6GJQsqaUBKTNV-1" vertex="1">
          <mxGeometry x="1094" y="217" width="183" height="267" as="geometry">
            <mxRectangle x="550" y="140" width="160" height="26" as="alternateBounds" />
          </mxGeometry>
        </mxCell>
        <mxCell id="wCcLSuPUGDMF66HCfckx-46" value="&lt;div&gt;- cwlist: ArrayList&amp;lt;CWScoring&amp;gt;&lt;/div&gt;&lt;div&gt;- timer: Timer&lt;/div&gt;&lt;div&gt;- startTime: long&lt;/div&gt;&lt;div&gt;- progress: int&lt;/div&gt;&lt;div&gt;- elapsedSeconds: long&lt;/div&gt;" style="text;html=1;align=left;verticalAlign=middle;resizable=0;points=[];autosize=1;strokeColor=none;fillColor=none;rounded=0;labelBackgroundColor=none;" parent="zkfFHV4jXpPFQw0GAbJ--17" vertex="1">
          <mxGeometry y="26" width="183" height="84" as="geometry" />
        </mxCell>
        <mxCell id="zkfFHV4jXpPFQw0GAbJ--23" value="" style="line;html=1;strokeWidth=1;align=left;verticalAlign=middle;spacingTop=-1;spacingLeft=3;spacingRight=3;rotatable=0;labelPosition=right;points=[];portConstraint=eastwest;rounded=0;labelBackgroundColor=none;" parent="zkfFHV4jXpPFQw0GAbJ--17" vertex="1">
          <mxGeometry y="110" width="183" height="1" as="geometry" />
        </mxCell>
        <mxCell id="zkfFHV4jXpPFQw0GAbJ--24" value="+ AdaptabilityGUI()&#xa;+ startBTNActionPerformed()&#xa;+ guessBTNActionPerformed()&#xa;+ backBTNActionPerformed()&#xa;+ stopBTNActionPerformed()&#xa;+ backBTN1ActionPerformed()&#xa;+ main(String args[])" style="text;align=left;verticalAlign=top;spacingLeft=4;spacingRight=4;overflow=hidden;rotatable=0;points=[[0,0.5],[1,0.5]];portConstraint=eastwest;rounded=0;labelBackgroundColor=none;" parent="zkfFHV4jXpPFQw0GAbJ--17" vertex="1">
          <mxGeometry y="111" width="183" height="108" as="geometry" />
        </mxCell>
        <mxCell id="wCcLSuPUGDMF66HCfckx-0" value="Group H: Climate Change Class Diagram" style="text;strokeColor=none;fillColor=none;html=1;fontSize=24;fontStyle=1;verticalAlign=middle;align=center;rounded=0;labelBackgroundColor=none;" parent="WIyWlLk6GJQsqaUBKTNV-1" vertex="1">
          <mxGeometry x="572" y="11" width="507" height="40" as="geometry" />
        </mxCell>
        <mxCell id="wCcLSuPUGDMF66HCfckx-12" value="CWScoring" style="swimlane;fontStyle=0;align=center;verticalAlign=top;childLayout=stackLayout;horizontal=1;startSize=26;horizontalStack=0;resizeParent=1;resizeLast=0;collapsible=1;marginBottom=0;rounded=0;shadow=0;strokeWidth=1;labelBackgroundColor=none;" parent="WIyWlLk6GJQsqaUBKTNV-1" vertex="1">
          <mxGeometry x="1305" y="217" width="268" height="219" as="geometry">
            <mxRectangle x="550" y="140" width="160" height="26" as="alternateBounds" />
          </mxGeometry>
        </mxCell>
        <mxCell id="wCcLSuPUGDMF66HCfckx-13" value="-time:double&#xa;-user: String&#xa;-score:int" style="text;align=left;verticalAlign=top;spacingLeft=4;spacingRight=4;overflow=hidden;rotatable=0;points=[[0,0.5],[1,0.5]];portConstraint=eastwest;rounded=0;labelBackgroundColor=none;" parent="wCcLSuPUGDMF66HCfckx-12" vertex="1">
          <mxGeometry y="26" width="268" height="50" as="geometry" />
        </mxCell>
        <mxCell id="wCcLSuPUGDMF66HCfckx-18" value="" style="line;html=1;strokeWidth=1;align=left;verticalAlign=middle;spacingTop=-1;spacingLeft=3;spacingRight=3;rotatable=0;labelPosition=right;points=[];portConstraint=eastwest;rounded=0;labelBackgroundColor=none;" parent="wCcLSuPUGDMF66HCfckx-12" vertex="1">
          <mxGeometry y="76" width="268" height="8" as="geometry" />
        </mxCell>
        <mxCell id="wCcLSuPUGDMF66HCfckx-19" value="+ CWScoring(int score, double time, String user)&#xa;+ CWScoring()&#xa;+ getScore(): int&#xa;+ getUser(): String&#xa;+ setUser(String user): void&#xa;+ setScore(int score): void&#xa;+ getTime(): double&#xa;+ setTime(double time): void&#xa;+ toString(): String" style="text;align=left;verticalAlign=top;spacingLeft=4;spacingRight=4;overflow=hidden;rotatable=0;points=[[0,0.5],[1,0.5]];portConstraint=eastwest;rounded=0;labelBackgroundColor=none;" parent="wCcLSuPUGDMF66HCfckx-12" vertex="1">
          <mxGeometry y="84" width="268" height="135" as="geometry" />
        </mxCell>
        <mxCell id="ALLmTtTM8wyNBMH5rYYV-0" value="TakeInput" style="swimlane;fontStyle=0;childLayout=stackLayout;horizontal=1;startSize=30;horizontalStack=0;resizeParent=1;resizeParentMax=0;resizeLast=0;collapsible=1;marginBottom=0;whiteSpace=wrap;html=1;rounded=0;labelBackgroundColor=none;" parent="WIyWlLk6GJQsqaUBKTNV-1" vertex="1">
          <mxGeometry x="646" y="563" width="202" height="150" as="geometry" />
        </mxCell>
        <mxCell id="ALLmTtTM8wyNBMH5rYYV-1" value="#choice double" style="text;strokeColor=none;fillColor=none;align=left;verticalAlign=middle;spacingLeft=4;spacingRight=4;overflow=hidden;points=[[0,0.5],[1,0.5]];portConstraint=eastwest;rotatable=0;whiteSpace=wrap;html=1;rounded=0;labelBackgroundColor=none;" parent="ALLmTtTM8wyNBMH5rYYV-0" vertex="1">
          <mxGeometry y="30" width="202" height="30" as="geometry" />
        </mxCell>
        <mxCell id="ALLmTtTM8wyNBMH5rYYV-2" value="#playerName String" style="text;strokeColor=none;fillColor=none;align=left;verticalAlign=middle;spacingLeft=4;spacingRight=4;overflow=hidden;points=[[0,0.5],[1,0.5]];portConstraint=eastwest;rotatable=0;whiteSpace=wrap;html=1;rounded=0;labelBackgroundColor=none;" parent="ALLmTtTM8wyNBMH5rYYV-0" vertex="1">
          <mxGeometry y="60" width="202" height="30" as="geometry" />
        </mxCell>
        <mxCell id="ALLmTtTM8wyNBMH5rYYV-3" value="#lives double" style="text;strokeColor=none;fillColor=none;align=left;verticalAlign=middle;spacingLeft=4;spacingRight=4;overflow=hidden;points=[[0,0.5],[1,0.5]];portConstraint=eastwest;rotatable=0;whiteSpace=wrap;html=1;rounded=0;labelBackgroundColor=none;" parent="ALLmTtTM8wyNBMH5rYYV-0" vertex="1">
          <mxGeometry y="90" width="202" height="30" as="geometry" />
        </mxCell>
        <mxCell id="ALLmTtTM8wyNBMH5rYYV-4" value="" style="endArrow=none;html=1;rounded=0;exitX=-0.013;exitY=0.022;exitDx=0;exitDy=0;exitPerimeter=0;entryX=1.007;entryY=0.007;entryDx=0;entryDy=0;entryPerimeter=0;labelBackgroundColor=none;fontColor=default;" parent="ALLmTtTM8wyNBMH5rYYV-0" target="ALLmTtTM8wyNBMH5rYYV-5" edge="1">
          <mxGeometry width="50" height="50" relative="1" as="geometry">
            <mxPoint y="121" as="sourcePoint" />
            <mxPoint x="142" y="120" as="targetPoint" />
          </mxGeometry>
        </mxCell>
        <mxCell id="ALLmTtTM8wyNBMH5rYYV-5" value="-Set, get()&lt;span style=&quot;white-space: pre;&quot;&gt;&#x9;&lt;/span&gt;&amp;nbsp;constructors()" style="text;strokeColor=none;fillColor=none;align=left;verticalAlign=middle;spacingLeft=4;spacingRight=4;overflow=hidden;points=[[0,0.5],[1,0.5]];portConstraint=eastwest;rotatable=0;whiteSpace=wrap;html=1;rounded=0;labelBackgroundColor=none;" parent="ALLmTtTM8wyNBMH5rYYV-0" vertex="1">
          <mxGeometry y="120" width="202" height="30" as="geometry" />
        </mxCell>
        <mxCell id="ALLmTtTM8wyNBMH5rYYV-6" value="CardGameApp" style="swimlane;fontStyle=0;childLayout=stackLayout;horizontal=1;startSize=30;horizontalStack=0;resizeParent=1;resizeParentMax=0;resizeLast=0;collapsible=1;marginBottom=0;whiteSpace=wrap;html=1;rounded=0;labelBackgroundColor=none;" parent="WIyWlLk6GJQsqaUBKTNV-1" vertex="1">
          <mxGeometry x="896" y="563" width="159" height="360" as="geometry" />
        </mxCell>
        <mxCell id="ALLmTtTM8wyNBMH5rYYV-7" value="-CardArray[]" style="text;strokeColor=none;fillColor=none;align=left;verticalAlign=middle;spacingLeft=4;spacingRight=4;overflow=hidden;points=[[0,0.5],[1,0.5]];portConstraint=eastwest;rotatable=0;whiteSpace=wrap;html=1;rounded=0;labelBackgroundColor=none;" parent="ALLmTtTM8wyNBMH5rYYV-6" vertex="1">
          <mxGeometry y="30" width="159" height="30" as="geometry" />
        </mxCell>
        <mxCell id="ALLmTtTM8wyNBMH5rYYV-8" value="-cardNum double" style="text;strokeColor=none;fillColor=none;align=left;verticalAlign=middle;spacingLeft=4;spacingRight=4;overflow=hidden;points=[[0,0.5],[1,0.5]];portConstraint=eastwest;rotatable=0;whiteSpace=wrap;html=1;rounded=0;labelBackgroundColor=none;" parent="ALLmTtTM8wyNBMH5rYYV-6" vertex="1">
          <mxGeometry y="60" width="159" height="30" as="geometry" />
        </mxCell>
        <mxCell id="ALLmTtTM8wyNBMH5rYYV-9" value="- choice&amp;amp;cardHolder obj" style="text;strokeColor=none;fillColor=none;align=left;verticalAlign=middle;spacingLeft=4;spacingRight=4;overflow=hidden;points=[[0,0.5],[1,0.5]];portConstraint=eastwest;rotatable=0;whiteSpace=wrap;html=1;rounded=0;labelBackgroundColor=none;" parent="ALLmTtTM8wyNBMH5rYYV-6" vertex="1">
          <mxGeometry y="90" width="159" height="30" as="geometry" />
        </mxCell>
        <mxCell id="ALLmTtTM8wyNBMH5rYYV-10" value="- counter double" style="text;strokeColor=none;fillColor=none;align=left;verticalAlign=middle;spacingLeft=4;spacingRight=4;overflow=hidden;points=[[0,0.5],[1,0.5]];portConstraint=eastwest;rotatable=0;whiteSpace=wrap;html=1;rounded=0;labelBackgroundColor=none;" parent="ALLmTtTM8wyNBMH5rYYV-6" vertex="1">
          <mxGeometry y="120" width="159" height="30" as="geometry" />
        </mxCell>
        <mxCell id="ALLmTtTM8wyNBMH5rYYV-11" value="" style="endArrow=none;html=1;rounded=0;exitX=0.002;exitY=-0.131;exitDx=0;exitDy=0;exitPerimeter=0;entryX=1.002;entryY=0.867;entryDx=0;entryDy=0;entryPerimeter=0;labelBackgroundColor=none;fontColor=default;" parent="ALLmTtTM8wyNBMH5rYYV-6" source="ALLmTtTM8wyNBMH5rYYV-12" target="ALLmTtTM8wyNBMH5rYYV-10" edge="1">
          <mxGeometry width="50" height="50" relative="1" as="geometry">
            <mxPoint x="50" y="220" as="sourcePoint" />
            <mxPoint x="100" y="170" as="targetPoint" />
          </mxGeometry>
        </mxCell>
        <mxCell id="ALLmTtTM8wyNBMH5rYYV-12" value="+ startGame()" style="text;strokeColor=none;fillColor=none;align=left;verticalAlign=middle;spacingLeft=4;spacingRight=4;overflow=hidden;points=[[0,0.5],[1,0.5]];portConstraint=eastwest;rotatable=0;whiteSpace=wrap;html=1;rounded=0;labelBackgroundColor=none;" parent="ALLmTtTM8wyNBMH5rYYV-6" vertex="1">
          <mxGeometry y="150" width="159" height="30" as="geometry" />
        </mxCell>
        <mxCell id="ALLmTtTM8wyNBMH5rYYV-13" value="+ compare()" style="text;strokeColor=none;fillColor=none;align=left;verticalAlign=middle;spacingLeft=4;spacingRight=4;overflow=hidden;points=[[0,0.5],[1,0.5]];portConstraint=eastwest;rotatable=0;whiteSpace=wrap;html=1;rounded=0;labelBackgroundColor=none;" parent="ALLmTtTM8wyNBMH5rYYV-6" vertex="1">
          <mxGeometry y="180" width="159" height="30" as="geometry" />
        </mxCell>
        <mxCell id="ALLmTtTM8wyNBMH5rYYV-14" value="+ score" style="text;strokeColor=none;fillColor=none;align=left;verticalAlign=middle;spacingLeft=4;spacingRight=4;overflow=hidden;points=[[0,0.5],[1,0.5]];portConstraint=eastwest;rotatable=0;whiteSpace=wrap;html=1;rounded=0;labelBackgroundColor=none;" parent="ALLmTtTM8wyNBMH5rYYV-6" vertex="1">
          <mxGeometry y="210" width="159" height="30" as="geometry" />
        </mxCell>
        <mxCell id="ALLmTtTM8wyNBMH5rYYV-15" value="- decreaseLives()" style="text;strokeColor=none;fillColor=none;align=left;verticalAlign=middle;spacingLeft=4;spacingRight=4;overflow=hidden;points=[[0,0.5],[1,0.5]];portConstraint=eastwest;rotatable=0;whiteSpace=wrap;html=1;rounded=0;labelBackgroundColor=none;" parent="ALLmTtTM8wyNBMH5rYYV-6" vertex="1">
          <mxGeometry y="240" width="159" height="30" as="geometry" />
        </mxCell>
        <mxCell id="ALLmTtTM8wyNBMH5rYYV-16" value="-result()" style="text;strokeColor=none;fillColor=none;align=left;verticalAlign=middle;spacingLeft=4;spacingRight=4;overflow=hidden;points=[[0,0.5],[1,0.5]];portConstraint=eastwest;rotatable=0;whiteSpace=wrap;html=1;rounded=0;labelBackgroundColor=none;" parent="ALLmTtTM8wyNBMH5rYYV-6" vertex="1">
          <mxGeometry y="270" width="159" height="30" as="geometry" />
        </mxCell>
        <mxCell id="ALLmTtTM8wyNBMH5rYYV-17" value="-restart()" style="text;strokeColor=none;fillColor=none;align=left;verticalAlign=middle;spacingLeft=4;spacingRight=4;overflow=hidden;points=[[0,0.5],[1,0.5]];portConstraint=eastwest;rotatable=0;whiteSpace=wrap;html=1;rounded=0;labelBackgroundColor=none;" parent="ALLmTtTM8wyNBMH5rYYV-6" vertex="1">
          <mxGeometry y="300" width="159" height="30" as="geometry" />
        </mxCell>
        <mxCell id="ALLmTtTM8wyNBMH5rYYV-18" value="+ randomCardGenerator ()" style="text;strokeColor=none;fillColor=none;align=left;verticalAlign=middle;spacingLeft=4;spacingRight=4;overflow=hidden;points=[[0,0.5],[1,0.5]];portConstraint=eastwest;rotatable=0;whiteSpace=wrap;html=1;rounded=0;labelBackgroundColor=none;" parent="ALLmTtTM8wyNBMH5rYYV-6" vertex="1">
          <mxGeometry y="330" width="159" height="30" as="geometry" />
        </mxCell>
        <mxCell id="ALLmTtTM8wyNBMH5rYYV-19" value="ChoiceCardHolder" style="swimlane;fontStyle=0;childLayout=stackLayout;horizontal=1;startSize=30;horizontalStack=0;resizeParent=1;resizeParentMax=0;resizeLast=0;collapsible=1;marginBottom=0;whiteSpace=wrap;html=1;rounded=0;labelBackgroundColor=none;" parent="WIyWlLk6GJQsqaUBKTNV-1" vertex="1">
          <mxGeometry x="909" y="945.5" width="133" height="120" as="geometry" />
        </mxCell>
        <mxCell id="ALLmTtTM8wyNBMH5rYYV-20" value="card1()" style="text;strokeColor=none;fillColor=none;align=left;verticalAlign=middle;spacingLeft=4;spacingRight=4;overflow=hidden;points=[[0,0.5],[1,0.5]];portConstraint=eastwest;rotatable=0;whiteSpace=wrap;html=1;rounded=0;labelBackgroundColor=none;" parent="ALLmTtTM8wyNBMH5rYYV-19" vertex="1">
          <mxGeometry y="30" width="133" height="30" as="geometry" />
        </mxCell>
        <mxCell id="ALLmTtTM8wyNBMH5rYYV-21" value="card2()" style="text;strokeColor=none;fillColor=none;align=left;verticalAlign=middle;spacingLeft=4;spacingRight=4;overflow=hidden;points=[[0,0.5],[1,0.5]];portConstraint=eastwest;rotatable=0;whiteSpace=wrap;html=1;rounded=0;labelBackgroundColor=none;" parent="ALLmTtTM8wyNBMH5rYYV-19" vertex="1">
          <mxGeometry y="60" width="133" height="30" as="geometry" />
        </mxCell>
        <mxCell id="ALLmTtTM8wyNBMH5rYYV-22" value="card3()" style="text;strokeColor=none;fillColor=none;align=left;verticalAlign=middle;spacingLeft=4;spacingRight=4;overflow=hidden;points=[[0,0.5],[1,0.5]];portConstraint=eastwest;rotatable=0;whiteSpace=wrap;html=1;rounded=0;labelBackgroundColor=none;" parent="ALLmTtTM8wyNBMH5rYYV-19" vertex="1">
          <mxGeometry y="90" width="133" height="30" as="geometry" />
        </mxCell>
        <mxCell id="ALLmTtTM8wyNBMH5rYYV-25" value="Brief" style="swimlane;fontStyle=0;childLayout=stackLayout;horizontal=1;startSize=30;horizontalStack=0;resizeParent=1;resizeParentMax=0;resizeLast=0;collapsible=1;marginBottom=0;whiteSpace=wrap;html=1;rounded=0;labelBackgroundColor=none;" parent="WIyWlLk6GJQsqaUBKTNV-1" vertex="1">
          <mxGeometry x="622" y="949" width="250" height="113" as="geometry" />
        </mxCell>
        <mxCell id="ALLmTtTM8wyNBMH5rYYV-26" value="+ ExplainGame()" style="text;strokeColor=none;fillColor=none;align=left;verticalAlign=middle;spacingLeft=4;spacingRight=4;overflow=hidden;points=[[0,0.5],[1,0.5]];portConstraint=eastwest;rotatable=0;whiteSpace=wrap;html=1;rounded=0;labelBackgroundColor=none;" parent="ALLmTtTM8wyNBMH5rYYV-25" vertex="1">
          <mxGeometry y="30" width="250" height="30" as="geometry" />
        </mxCell>
        <mxCell id="ALLmTtTM8wyNBMH5rYYV-27" value="+ HowNationsAreChangingTheirMethods()" style="text;strokeColor=none;fillColor=none;align=left;verticalAlign=middle;spacingLeft=4;spacingRight=4;overflow=hidden;points=[[0,0.5],[1,0.5]];portConstraint=eastwest;rotatable=0;whiteSpace=wrap;html=1;rounded=0;labelBackgroundColor=none;" parent="ALLmTtTM8wyNBMH5rYYV-25" vertex="1">
          <mxGeometry y="60" width="250" height="30" as="geometry" />
        </mxCell>
        <mxCell id="ALLmTtTM8wyNBMH5rYYV-28" value="+MoreInformation ()" style="text;strokeColor=none;fillColor=none;align=left;verticalAlign=middle;spacingLeft=4;spacingRight=4;overflow=hidden;points=[[0,0.5],[1,0.5]];portConstraint=eastwest;rotatable=0;whiteSpace=wrap;html=1;rounded=0;labelBackgroundColor=none;" parent="ALLmTtTM8wyNBMH5rYYV-25" vertex="1">
          <mxGeometry y="90" width="250" height="23" as="geometry" />
        </mxCell>
        <mxCell id="ALLmTtTM8wyNBMH5rYYV-29" value="MenuUI" style="swimlane;fontStyle=0;childLayout=stackLayout;horizontal=1;startSize=30;horizontalStack=0;resizeParent=1;resizeParentMax=0;resizeLast=0;collapsible=1;marginBottom=0;whiteSpace=wrap;html=1;rounded=0;labelBackgroundColor=none;" parent="WIyWlLk6GJQsqaUBKTNV-1" vertex="1">
          <mxGeometry x="677" y="727" width="140" height="150" as="geometry" />
        </mxCell>
        <mxCell id="ALLmTtTM8wyNBMH5rYYV-30" value="- load obj" style="text;strokeColor=none;fillColor=none;align=left;verticalAlign=middle;spacingLeft=4;spacingRight=4;overflow=hidden;points=[[0,0.5],[1,0.5]];portConstraint=eastwest;rotatable=0;whiteSpace=wrap;html=1;rounded=0;labelBackgroundColor=none;" parent="ALLmTtTM8wyNBMH5rYYV-29" vertex="1">
          <mxGeometry y="30" width="140" height="30" as="geometry" />
        </mxCell>
        <mxCell id="ALLmTtTM8wyNBMH5rYYV-31" value="-view obj" style="text;strokeColor=none;fillColor=none;align=left;verticalAlign=middle;spacingLeft=4;spacingRight=4;overflow=hidden;points=[[0,0.5],[1,0.5]];portConstraint=eastwest;rotatable=0;whiteSpace=wrap;html=1;rounded=0;labelBackgroundColor=none;" parent="ALLmTtTM8wyNBMH5rYYV-29" vertex="1">
          <mxGeometry y="60" width="140" height="30" as="geometry" />
        </mxCell>
        <mxCell id="ALLmTtTM8wyNBMH5rYYV-32" value="+view.brief()" style="text;strokeColor=none;fillColor=none;align=left;verticalAlign=middle;spacingLeft=4;spacingRight=4;overflow=hidden;points=[[0,0.5],[1,0.5]];portConstraint=eastwest;rotatable=0;whiteSpace=wrap;html=1;rounded=0;labelBackgroundColor=none;" parent="ALLmTtTM8wyNBMH5rYYV-29" vertex="1">
          <mxGeometry y="90" width="140" height="30" as="geometry" />
        </mxCell>
        <mxCell id="ALLmTtTM8wyNBMH5rYYV-33" value="+load.cardGame()" style="text;strokeColor=none;fillColor=none;align=left;verticalAlign=middle;spacingLeft=4;spacingRight=4;overflow=hidden;points=[[0,0.5],[1,0.5]];portConstraint=eastwest;rotatable=0;whiteSpace=wrap;html=1;rounded=0;labelBackgroundColor=none;" parent="ALLmTtTM8wyNBMH5rYYV-29" vertex="1">
          <mxGeometry y="120" width="140" height="30" as="geometry" />
        </mxCell>
        <mxCell id="ALLmTtTM8wyNBMH5rYYV-34" value="" style="endArrow=none;html=1;rounded=0;exitX=-0.013;exitY=0.022;exitDx=0;exitDy=0;exitPerimeter=0;labelBackgroundColor=none;fontColor=default;" parent="ALLmTtTM8wyNBMH5rYYV-29" source="ALLmTtTM8wyNBMH5rYYV-33" edge="1">
          <mxGeometry width="50" height="50" relative="1" as="geometry">
            <mxPoint x="160" y="340" as="sourcePoint" />
            <mxPoint x="140" y="120" as="targetPoint" />
          </mxGeometry>
        </mxCell>
        <mxCell id="gUT7yQ2AhKC2n2s43ani-105" value="QuizApp" style="swimlane;fontStyle=0;align=center;verticalAlign=top;childLayout=stackLayout;horizontal=1;startSize=26;horizontalStack=0;resizeParent=1;resizeLast=0;collapsible=1;marginBottom=0;rounded=0;shadow=0;strokeWidth=1;labelBackgroundColor=none;" parent="WIyWlLk6GJQsqaUBKTNV-1" vertex="1">
          <mxGeometry x="472" y="274" width="143" height="84" as="geometry">
            <mxRectangle x="550" y="140" width="160" height="26" as="alternateBounds" />
          </mxGeometry>
        </mxCell>
        <mxCell id="gUT7yQ2AhKC2n2s43ani-106" value="&amp;nbsp;" style="text;html=1;align=left;verticalAlign=middle;resizable=0;points=[];autosize=1;strokeColor=none;fillColor=none;rounded=0;labelBackgroundColor=none;" parent="gUT7yQ2AhKC2n2s43ani-105" vertex="1">
          <mxGeometry y="26" width="143" height="26" as="geometry" />
        </mxCell>
        <mxCell id="gUT7yQ2AhKC2n2s43ani-107" value="" style="line;html=1;strokeWidth=1;align=left;verticalAlign=middle;spacingTop=-1;spacingLeft=3;spacingRight=3;rotatable=0;labelPosition=right;points=[];portConstraint=eastwest;rounded=0;labelBackgroundColor=none;" parent="gUT7yQ2AhKC2n2s43ani-105" vertex="1">
          <mxGeometry y="52" width="143" height="1" as="geometry" />
        </mxCell>
        <mxCell id="gUT7yQ2AhKC2n2s43ani-108" value="Quiz()" style="text;align=left;verticalAlign=top;spacingLeft=4;spacingRight=4;overflow=hidden;rotatable=0;points=[[0,0.5],[1,0.5]];portConstraint=eastwest;rounded=0;labelBackgroundColor=none;" parent="gUT7yQ2AhKC2n2s43ani-105" vertex="1">
          <mxGeometry y="53" width="143" height="25" as="geometry" />
        </mxCell>
        <mxCell id="gUT7yQ2AhKC2n2s43ani-182" value="User" style="swimlane;fontStyle=0;align=center;verticalAlign=top;childLayout=stackLayout;horizontal=1;startSize=26;horizontalStack=0;resizeParent=1;resizeLast=0;collapsible=1;marginBottom=0;rounded=0;shadow=0;strokeWidth=1;labelBackgroundColor=none;" parent="WIyWlLk6GJQsqaUBKTNV-1" vertex="1">
          <mxGeometry x="32" y="274" width="192" height="159" as="geometry">
            <mxRectangle x="340" y="380" width="170" height="26" as="alternateBounds" />
          </mxGeometry>
        </mxCell>
        <mxCell id="gUT7yQ2AhKC2n2s43ani-183" value="-name: String&lt;br&gt;-score: int" style="text;html=1;align=left;verticalAlign=middle;resizable=0;points=[];autosize=1;strokeColor=none;fillColor=none;labelBackgroundColor=none;rounded=0;" parent="gUT7yQ2AhKC2n2s43ani-182" vertex="1">
          <mxGeometry y="26" width="192" height="40" as="geometry" />
        </mxCell>
        <mxCell id="gUT7yQ2AhKC2n2s43ani-184" value="" style="line;strokeWidth=1;fillColor=none;align=left;verticalAlign=middle;spacingTop=-1;spacingLeft=3;spacingRight=3;rotatable=0;labelPosition=right;points=[];portConstraint=eastwest;rounded=0;labelBackgroundColor=none;" parent="gUT7yQ2AhKC2n2s43ani-182" vertex="1">
          <mxGeometry y="66" width="192" height="8" as="geometry" />
        </mxCell>
        <mxCell id="gUT7yQ2AhKC2n2s43ani-185" value="+getName(): String&#xa;+setName(name: String): void&#xa;+getScore(): int&#xa;+setScore(score: int): void" style="text;align=left;verticalAlign=top;spacingLeft=4;spacingRight=4;overflow=hidden;rotatable=0;points=[[0,0.5],[1,0.5]];portConstraint=eastwest;rounded=0;labelBackgroundColor=none;" parent="gUT7yQ2AhKC2n2s43ani-182" vertex="1">
          <mxGeometry y="74" width="192" height="71" as="geometry" />
        </mxCell>
        <mxCell id="gUT7yQ2AhKC2n2s43ani-188" value="QuizUI" style="swimlane;fontStyle=0;align=center;verticalAlign=top;childLayout=stackLayout;horizontal=1;startSize=26;horizontalStack=0;resizeParent=1;resizeLast=0;collapsible=1;marginBottom=0;rounded=0;shadow=0;strokeWidth=1;labelBackgroundColor=none;" parent="WIyWlLk6GJQsqaUBKTNV-1" vertex="1">
          <mxGeometry x="262" y="271" width="192" height="162" as="geometry">
            <mxRectangle x="340" y="380" width="170" height="26" as="alternateBounds" />
          </mxGeometry>
        </mxCell>
        <mxCell id="gUT7yQ2AhKC2n2s43ani-189" value="-questions: ArrayList&amp;lt;MCQ&amp;gt;&lt;br&gt;-score: int" style="text;html=1;align=left;verticalAlign=middle;resizable=0;points=[];autosize=1;strokeColor=none;fillColor=none;labelBackgroundColor=none;rounded=0;" parent="gUT7yQ2AhKC2n2s43ani-188" vertex="1">
          <mxGeometry y="26" width="192" height="40" as="geometry" />
        </mxCell>
        <mxCell id="gUT7yQ2AhKC2n2s43ani-190" value="" style="line;strokeWidth=1;fillColor=none;align=left;verticalAlign=middle;spacingTop=-1;spacingLeft=3;spacingRight=3;rotatable=0;labelPosition=right;points=[];portConstraint=eastwest;rounded=0;labelBackgroundColor=none;" parent="gUT7yQ2AhKC2n2s43ani-188" vertex="1">
          <mxGeometry y="66" width="192" height="8" as="geometry" />
        </mxCell>
        <mxCell id="gUT7yQ2AhKC2n2s43ani-191" value="+addQuestion(question: MCQ)&#xa;+start()&#xa;+calcScore()" style="text;align=left;verticalAlign=top;spacingLeft=4;spacingRight=4;overflow=hidden;rotatable=0;points=[[0,0.5],[1,0.5]];portConstraint=eastwest;rounded=0;labelBackgroundColor=none;" parent="gUT7yQ2AhKC2n2s43ani-188" vertex="1">
          <mxGeometry y="74" width="192" height="52" as="geometry" />
        </mxCell>
        <mxCell id="gUT7yQ2AhKC2n2s43ani-192" value="TFQ" style="swimlane;fontStyle=0;align=center;verticalAlign=top;childLayout=stackLayout;horizontal=1;startSize=26;horizontalStack=0;resizeParent=1;resizeLast=0;collapsible=1;marginBottom=0;rounded=0;shadow=0;strokeWidth=1;labelBackgroundColor=none;" parent="WIyWlLk6GJQsqaUBKTNV-1" vertex="1">
          <mxGeometry x="258" y="479" width="167" height="112" as="geometry">
            <mxRectangle x="340" y="380" width="170" height="26" as="alternateBounds" />
          </mxGeometry>
        </mxCell>
        <mxCell id="gUT7yQ2AhKC2n2s43ani-193" value="-correctAns: boolean" style="text;html=1;align=left;verticalAlign=middle;resizable=0;points=[];autosize=1;strokeColor=none;fillColor=none;labelBackgroundColor=none;rounded=0;" parent="gUT7yQ2AhKC2n2s43ani-192" vertex="1">
          <mxGeometry y="26" width="167" height="26" as="geometry" />
        </mxCell>
        <mxCell id="gUT7yQ2AhKC2n2s43ani-194" value="" style="line;strokeWidth=1;fillColor=none;align=left;verticalAlign=middle;spacingTop=-1;spacingLeft=3;spacingRight=3;rotatable=0;labelPosition=right;points=[];portConstraint=eastwest;rounded=0;labelBackgroundColor=none;" parent="gUT7yQ2AhKC2n2s43ani-192" vertex="1">
          <mxGeometry y="52" width="167" height="8" as="geometry" />
        </mxCell>
        <mxCell id="gUT7yQ2AhKC2n2s43ani-195" value="+getCorrect(): boolean&#xa;+setCorrect(correct: boolean)" style="text;align=left;verticalAlign=top;spacingLeft=4;spacingRight=4;overflow=hidden;rotatable=0;points=[[0,0.5],[1,0.5]];portConstraint=eastwest;rounded=0;labelBackgroundColor=none;" parent="gUT7yQ2AhKC2n2s43ani-192" vertex="1">
          <mxGeometry y="60" width="167" height="52" as="geometry" />
        </mxCell>
        <mxCell id="gUT7yQ2AhKC2n2s43ani-197" value="MCQ" style="swimlane;fontStyle=0;align=center;verticalAlign=top;childLayout=stackLayout;horizontal=1;startSize=26;horizontalStack=0;resizeParent=1;resizeLast=0;collapsible=1;marginBottom=0;rounded=0;shadow=0;strokeWidth=1;labelBackgroundColor=none;" parent="WIyWlLk6GJQsqaUBKTNV-1" vertex="1">
          <mxGeometry x="16" y="469" width="216" height="150" as="geometry">
            <mxRectangle x="340" y="380" width="170" height="26" as="alternateBounds" />
          </mxGeometry>
        </mxCell>
        <mxCell id="gUT7yQ2AhKC2n2s43ani-198" value="-options: ArrayList&amp;lt;String&amp;gt;&lt;br&gt;-correctOpt:int" style="text;html=1;align=left;verticalAlign=middle;resizable=0;points=[];autosize=1;strokeColor=none;fillColor=none;labelBackgroundColor=none;rounded=0;" parent="gUT7yQ2AhKC2n2s43ani-197" vertex="1">
          <mxGeometry y="26" width="216" height="40" as="geometry" />
        </mxCell>
        <mxCell id="gUT7yQ2AhKC2n2s43ani-199" value="" style="line;strokeWidth=1;fillColor=none;align=left;verticalAlign=middle;spacingTop=-1;spacingLeft=3;spacingRight=3;rotatable=0;labelPosition=right;points=[];portConstraint=eastwest;rounded=0;labelBackgroundColor=none;" parent="gUT7yQ2AhKC2n2s43ani-197" vertex="1">
          <mxGeometry y="66" width="216" height="8" as="geometry" />
        </mxCell>
        <mxCell id="gUT7yQ2AhKC2n2s43ani-200" value="+getOpt(): ArrayList&lt;String&gt;&#xa;+setOpt(opt: ArrayList&lt;String&gt;):void&#xa;+getCorrectOpt(): int&#xa;+setCorrectOpt(correctOpt: int): void" style="text;align=left;verticalAlign=top;spacingLeft=4;spacingRight=4;overflow=hidden;rotatable=0;points=[[0,0.5],[1,0.5]];portConstraint=eastwest;rounded=0;labelBackgroundColor=none;" parent="gUT7yQ2AhKC2n2s43ani-197" vertex="1">
          <mxGeometry y="74" width="216" height="76" as="geometry" />
        </mxCell>
        <mxCell id="gUT7yQ2AhKC2n2s43ani-206" value="Question" style="swimlane;fontStyle=0;align=center;verticalAlign=top;childLayout=stackLayout;horizontal=1;startSize=26;horizontalStack=0;resizeParent=1;resizeLast=0;collapsible=1;marginBottom=0;rounded=0;shadow=0;strokeWidth=1;labelBackgroundColor=none;" parent="WIyWlLk6GJQsqaUBKTNV-1" vertex="1">
          <mxGeometry x="164" y="689" width="158" height="125" as="geometry">
            <mxRectangle x="340" y="380" width="170" height="26" as="alternateBounds" />
          </mxGeometry>
        </mxCell>
        <mxCell id="gUT7yQ2AhKC2n2s43ani-207" value="#txt: String" style="text;html=1;align=left;verticalAlign=middle;resizable=0;points=[];autosize=1;strokeColor=none;fillColor=none;labelBackgroundColor=none;rounded=0;" parent="gUT7yQ2AhKC2n2s43ani-206" vertex="1">
          <mxGeometry y="26" width="158" height="26" as="geometry" />
        </mxCell>
        <mxCell id="gUT7yQ2AhKC2n2s43ani-208" value="" style="line;strokeWidth=1;fillColor=none;align=left;verticalAlign=middle;spacingTop=-1;spacingLeft=3;spacingRight=3;rotatable=0;labelPosition=right;points=[];portConstraint=eastwest;rounded=0;labelBackgroundColor=none;" parent="gUT7yQ2AhKC2n2s43ani-206" vertex="1">
          <mxGeometry y="52" width="158" height="8" as="geometry" />
        </mxCell>
        <mxCell id="gUT7yQ2AhKC2n2s43ani-209" value="+getTxt(): String&#xa;+setTxt(txt: String): void" style="text;align=left;verticalAlign=top;spacingLeft=4;spacingRight=4;overflow=hidden;rotatable=0;points=[[0,0.5],[1,0.5]];portConstraint=eastwest;rounded=0;labelBackgroundColor=none;" parent="gUT7yQ2AhKC2n2s43ani-206" vertex="1">
          <mxGeometry y="60" width="158" height="44" as="geometry" />
        </mxCell>
        <mxCell id="gUT7yQ2AhKC2n2s43ani-221" value="" style="endArrow=classic;html=1;rounded=0;labelBackgroundColor=none;fontColor=default;" parent="WIyWlLk6GJQsqaUBKTNV-1" source="gUT7yQ2AhKC2n2s43ani-197" target="gUT7yQ2AhKC2n2s43ani-206" edge="1">
          <mxGeometry width="50" height="50" relative="1" as="geometry">
            <mxPoint x="357" y="802" as="sourcePoint" />
            <mxPoint x="645" y="479" as="targetPoint" />
          </mxGeometry>
        </mxCell>
        <mxCell id="gUT7yQ2AhKC2n2s43ani-223" value="" style="endArrow=none;dashed=1;html=1;dashPattern=1 3;strokeWidth=2;rounded=0;labelBackgroundColor=none;fontColor=default;" parent="WIyWlLk6GJQsqaUBKTNV-1" source="ALLmTtTM8wyNBMH5rYYV-6" target="ALLmTtTM8wyNBMH5rYYV-19" edge="1">
          <mxGeometry width="50" height="50" relative="1" as="geometry">
            <mxPoint x="86" y="907" as="sourcePoint" />
            <mxPoint x="544" y="866" as="targetPoint" />
          </mxGeometry>
        </mxCell>
        <mxCell id="gUT7yQ2AhKC2n2s43ani-226" value="" style="endArrow=classic;html=1;rounded=0;labelBackgroundColor=none;fontColor=default;" parent="WIyWlLk6GJQsqaUBKTNV-1" source="ALLmTtTM8wyNBMH5rYYV-6" target="ALLmTtTM8wyNBMH5rYYV-0" edge="1">
          <mxGeometry width="50" height="50" relative="1" as="geometry">
            <mxPoint x="796" y="665" as="sourcePoint" />
            <mxPoint x="750" y="666" as="targetPoint" />
          </mxGeometry>
        </mxCell>
        <mxCell id="gUT7yQ2AhKC2n2s43ani-229" value="&lt;font style=&quot;font-size: 18px;&quot;&gt;Section 1: Educational Quiz&lt;/font&gt;" style="text;strokeColor=none;fillColor=none;html=1;fontSize=24;fontStyle=1;verticalAlign=middle;align=center;rounded=0;labelBackgroundColor=none;" parent="WIyWlLk6GJQsqaUBKTNV-1" vertex="1">
          <mxGeometry x="327" y="143" width="245" height="40" as="geometry" />
        </mxCell>
        <mxCell id="gUT7yQ2AhKC2n2s43ani-230" value="&lt;font style=&quot;font-size: 18px;&quot;&gt;Section 2: Adaptablity&lt;/font&gt;" style="text;strokeColor=none;fillColor=none;html=1;fontSize=24;fontStyle=1;verticalAlign=middle;align=center;rounded=0;labelBackgroundColor=none;" parent="WIyWlLk6GJQsqaUBKTNV-1" vertex="1">
          <mxGeometry x="1159" y="138" width="245" height="40" as="geometry" />
        </mxCell>
        <mxCell id="gUT7yQ2AhKC2n2s43ani-239" value="&lt;font style=&quot;font-size: 18px;&quot;&gt;Section 3: Card Game&lt;/font&gt;" style="text;strokeColor=none;fillColor=none;html=1;fontSize=24;fontStyle=1;verticalAlign=middle;align=center;rounded=0;labelBackgroundColor=none;" parent="WIyWlLk6GJQsqaUBKTNV-1" vertex="1">
          <mxGeometry x="717" y="1080" width="245" height="40" as="geometry" />
        </mxCell>
        <mxCell id="oNoCwGe1YVuzlAbGnBCr-0" value="Main App" style="swimlane;fontStyle=1;align=center;verticalAlign=top;childLayout=stackLayout;horizontal=1;startSize=26;horizontalStack=0;resizeParent=1;resizeParentMax=0;resizeLast=0;collapsible=1;marginBottom=0;whiteSpace=wrap;html=1;rounded=0;labelBackgroundColor=none;" parent="WIyWlLk6GJQsqaUBKTNV-1" vertex="1">
          <mxGeometry x="735" y="110" width="184" height="60" as="geometry" />
        </mxCell>
        <mxCell id="oNoCwGe1YVuzlAbGnBCr-2" value="" style="line;strokeWidth=1;fillColor=none;align=left;verticalAlign=middle;spacingTop=-1;spacingLeft=3;spacingRight=3;rotatable=0;labelPosition=right;points=[];portConstraint=eastwest;rounded=0;labelBackgroundColor=none;" parent="oNoCwGe1YVuzlAbGnBCr-0" vertex="1">
          <mxGeometry y="26" width="184" height="8" as="geometry" />
        </mxCell>
        <mxCell id="oNoCwGe1YVuzlAbGnBCr-3" value="UNDevelopmentMainMenuGUI()" style="text;strokeColor=none;fillColor=none;align=left;verticalAlign=top;spacingLeft=4;spacingRight=4;overflow=hidden;rotatable=0;points=[[0,0.5],[1,0.5]];portConstraint=eastwest;whiteSpace=wrap;html=1;rounded=0;labelBackgroundColor=none;" parent="oNoCwGe1YVuzlAbGnBCr-0" vertex="1">
          <mxGeometry y="34" width="184" height="26" as="geometry" />
        </mxCell>
        <mxCell id="oNoCwGe1YVuzlAbGnBCr-8" value="" style="endArrow=classic;html=1;rounded=0;labelBackgroundColor=none;fontColor=default;" parent="WIyWlLk6GJQsqaUBKTNV-1" source="gUT7yQ2AhKC2n2s43ani-192" target="gUT7yQ2AhKC2n2s43ani-206" edge="1">
          <mxGeometry width="50" height="50" relative="1" as="geometry">
            <mxPoint x="609" y="777" as="sourcePoint" />
            <mxPoint x="659" y="727" as="targetPoint" />
          </mxGeometry>
        </mxCell>
        <mxCell id="oNoCwGe1YVuzlAbGnBCr-10" value="" style="endArrow=none;dashed=1;html=1;dashPattern=1 3;strokeWidth=2;rounded=0;labelBackgroundColor=none;fontColor=default;" parent="WIyWlLk6GJQsqaUBKTNV-1" source="wCcLSuPUGDMF66HCfckx-12" target="zkfFHV4jXpPFQw0GAbJ--17" edge="1">
          <mxGeometry width="50" height="50" relative="1" as="geometry">
            <mxPoint x="1438" y="720" as="sourcePoint" />
            <mxPoint x="1488" y="670" as="targetPoint" />
          </mxGeometry>
        </mxCell>
        <mxCell id="oNoCwGe1YVuzlAbGnBCr-29" value="&lt;font style=&quot;font-size: 18px;&quot;&gt;Section 0: Menu&lt;/font&gt;" style="text;strokeColor=none;fillColor=none;html=1;fontSize=24;fontStyle=1;verticalAlign=middle;align=center;rounded=0;labelBackgroundColor=none;" parent="WIyWlLk6GJQsqaUBKTNV-1" vertex="1">
          <mxGeometry x="746.5" y="61" width="158" height="40" as="geometry" />
        </mxCell>
        <mxCell id="NpEaPBA1oQ_rwkoIjin3-0" value="CrosswordUsers" style="swimlane;fontStyle=0;align=center;verticalAlign=top;childLayout=stackLayout;horizontal=1;startSize=26;horizontalStack=0;resizeParent=1;resizeLast=0;collapsible=1;marginBottom=0;rounded=0;shadow=0;strokeWidth=1;labelBackgroundColor=none;" parent="WIyWlLk6GJQsqaUBKTNV-1" vertex="1">
          <mxGeometry x="1094" y="512" width="205" height="121" as="geometry">
            <mxRectangle x="550" y="140" width="160" height="26" as="alternateBounds" />
          </mxGeometry>
        </mxCell>
        <mxCell id="NpEaPBA1oQ_rwkoIjin3-1" value="-cwlist: ArrayLists&lt;CWScoring&gt;" style="text;align=left;verticalAlign=top;spacingLeft=4;spacingRight=4;overflow=hidden;rotatable=0;points=[[0,0.5],[1,0.5]];portConstraint=eastwest;rounded=0;labelBackgroundColor=none;" parent="NpEaPBA1oQ_rwkoIjin3-0" vertex="1">
          <mxGeometry y="26" width="205" height="26" as="geometry" />
        </mxCell>
        <mxCell id="NpEaPBA1oQ_rwkoIjin3-2" value="" style="line;html=1;strokeWidth=1;align=left;verticalAlign=middle;spacingTop=-1;spacingLeft=3;spacingRight=3;rotatable=0;labelPosition=right;points=[];portConstraint=eastwest;rounded=0;labelBackgroundColor=none;" parent="NpEaPBA1oQ_rwkoIjin3-0" vertex="1">
          <mxGeometry y="52" width="205" height="8" as="geometry" />
        </mxCell>
        <mxCell id="NpEaPBA1oQ_rwkoIjin3-3" value="+ update()&#xa;- deleteFileContents(String fileName)&#xa;+ delete()&#xa;+ search()" style="text;align=left;verticalAlign=top;spacingLeft=4;spacingRight=4;overflow=hidden;rotatable=0;points=[[0,0.5],[1,0.5]];portConstraint=eastwest;rounded=0;labelBackgroundColor=none;" parent="NpEaPBA1oQ_rwkoIjin3-0" vertex="1">
          <mxGeometry y="60" width="205" height="61" as="geometry" />
        </mxCell>
        <mxCell id="NpEaPBA1oQ_rwkoIjin3-4" value="" style="endArrow=none;dashed=1;html=1;dashPattern=1 3;strokeWidth=2;rounded=0;labelBackgroundColor=none;fontColor=default;" parent="WIyWlLk6GJQsqaUBKTNV-1" source="NpEaPBA1oQ_rwkoIjin3-0" target="zkfFHV4jXpPFQw0GAbJ--17" edge="1">
          <mxGeometry width="50" height="50" relative="1" as="geometry">
            <mxPoint x="1485" y="242.48370370370344" as="sourcePoint" />
            <mxPoint x="1254" y="636.0827814569536" as="targetPoint" />
          </mxGeometry>
        </mxCell>
        <mxCell id="QDhcxCcGPT5I1Y8VprDf-0" value="UNDevelopmentMainMenuGUI" style="swimlane;fontStyle=1;align=center;verticalAlign=top;childLayout=stackLayout;horizontal=1;startSize=26;horizontalStack=0;resizeParent=1;resizeParentMax=0;resizeLast=0;collapsible=1;marginBottom=0;whiteSpace=wrap;html=1;rounded=0;labelBackgroundColor=none;" parent="WIyWlLk6GJQsqaUBKTNV-1" vertex="1">
          <mxGeometry x="688" y="223" width="272" height="144" as="geometry" />
        </mxCell>
        <mxCell id="QDhcxCcGPT5I1Y8VprDf-3" value="UNDevelopmentMainMenuGUI()" style="text;strokeColor=none;fillColor=none;align=left;verticalAlign=top;spacingLeft=4;spacingRight=4;overflow=hidden;rotatable=0;points=[[0,0.5],[1,0.5]];portConstraint=eastwest;whiteSpace=wrap;html=1;rounded=0;labelBackgroundColor=none;" parent="QDhcxCcGPT5I1Y8VprDf-0" vertex="1">
          <mxGeometry y="26" width="272" height="26" as="geometry" />
        </mxCell>
        <mxCell id="QDhcxCcGPT5I1Y8VprDf-1" value="" style="line;strokeWidth=1;fillColor=none;align=left;verticalAlign=middle;spacingTop=-1;spacingLeft=3;spacingRight=3;rotatable=0;labelPosition=right;points=[];portConstraint=eastwest;rounded=0;labelBackgroundColor=none;" parent="QDhcxCcGPT5I1Y8VprDf-0" vertex="1">
          <mxGeometry y="52" width="272" height="8" as="geometry" />
        </mxCell>
        <mxCell id="QDhcxCcGPT5I1Y8VprDf-2" value="initComponents()&lt;br&gt;AwarenessGUI()&lt;br&gt;ImpactGUI()&lt;br&gt;IntegrationsUI()&lt;br&gt;AdaptabilityGUI()" style="text;strokeColor=none;fillColor=none;align=left;verticalAlign=top;spacingLeft=4;spacingRight=4;overflow=hidden;rotatable=0;points=[[0,0.5],[1,0.5]];portConstraint=eastwest;whiteSpace=wrap;html=1;rounded=0;labelBackgroundColor=none;" parent="QDhcxCcGPT5I1Y8VprDf-0" vertex="1">
          <mxGeometry y="60" width="272" height="84" as="geometry" />
        </mxCell>
        <mxCell id="QDhcxCcGPT5I1Y8VprDf-4" value="" style="endArrow=none;dashed=1;html=1;dashPattern=1 3;strokeWidth=2;rounded=0;" parent="WIyWlLk6GJQsqaUBKTNV-1" source="QDhcxCcGPT5I1Y8VprDf-0" target="oNoCwGe1YVuzlAbGnBCr-0" edge="1">
          <mxGeometry width="50" height="50" relative="1" as="geometry">
            <mxPoint x="839" y="176" as="sourcePoint" />
            <mxPoint x="889" y="126" as="targetPoint" />
          </mxGeometry>
        </mxCell>
        <mxCell id="QDhcxCcGPT5I1Y8VprDf-5" value="" style="endArrow=none;dashed=1;html=1;dashPattern=1 3;strokeWidth=2;rounded=0;" parent="WIyWlLk6GJQsqaUBKTNV-1" source="QDhcxCcGPT5I1Y8VprDf-0" target="zkfFHV4jXpPFQw0GAbJ--17" edge="1">
          <mxGeometry width="50" height="50" relative="1" as="geometry">
            <mxPoint x="969" y="476" as="sourcePoint" />
            <mxPoint x="1019" y="426" as="targetPoint" />
          </mxGeometry>
        </mxCell>
      </root>
    </mxGraphModel>
  </diagram>
</mxfile>
